<svg xmlns="http://www.w3.org/2000/svg" width="60.085" height="23.174" viewBox="0 0 818.593 315.719">
  <defs>
    <style>
      .cls-1 {
        fill: #5065f6;
        fill-rule: evenodd;
      }
    </style>
  </defs>
  <path id="形状_5_副本_2" data-name="形状 5 副本 2" class="cls-1" d="M64.037,363.09c56.035-23.989,116.05-28.124,172.442-4.595,89.252,36.121,173.75,107.719,267.7,110.75,59.3,1.012,117.239-48.619,145.049-130.327-74.872,58.914-163.886,44.76-240.54,1.562C350.9,305.71,290.411,284.5,227.559,279.288,181.037,275.081,115.447,293.161,64.037,363.09Zm255.87,140.715c-45.042-50.827-92.816-100.917-148.139-120.035-49.32-17.647-103.394-1.746-144.216,44.944,36.663-17.1,75.762-28.951,113.555-12.959,79.625,29.41,137.8,129.317,215.285,166.816,23.71,11.947,49.023,13.694,73.743,10.386C391.273,570.072,353.659,541.763,319.907,503.805Zm195.736-4.021c46.608-1.047,79.688-26.445,114.084-69.964,0.143-.071.542-0.356,0.43-0.2,38.024-51.375,138.67-94.509,215.991,45.972-56.15-35.917-89.987-31.824-154.913,40.9-79.863,78.307-184.5,90.531-271.559,33.914-63.7-39.613-116.11-111.026-178.206-155.6C336.724,409.044,402.344,504.77,515.643,499.784Z" transform="translate(-27.563 -278.719)"/>
</svg>
